# Blender v2.79 (sub 0) OBJ File: ''
# www.blender.org
mtllib invader.mtl
o Cube
v 2.365741 -1.000000 -1.000000
v 2.365741 -1.000000 1.000000
v 2.365742 1.000000 -0.999999
v 2.365741 1.000000 1.000001
v 4.220867 -1.000000 1.000000
v 4.220865 1.000000 1.000001
v 4.220867 -1.000000 3.185114
v 4.220865 1.000000 3.185114
v 6.271264 -1.000000 3.185114
v 6.271262 1.000000 3.185114
v 6.271264 -1.000000 5.497444
v 6.271262 1.000000 5.497444
v 8.383934 -1.000000 5.497444
v 8.383931 1.000000 5.497444
v 8.383934 -1.000000 7.941748
v 8.383931 1.000000 7.941749
v 2.769380 -1.000000 10.461060
v 5.576657 -1.000000 10.461060
v 8.383931 1.000000 10.461060
v 8.383934 -1.000000 10.461060
v 1.965742 -1.000000 -1.000000
v 1.565742 -1.000000 -1.000000
v 1.965742 -1.000000 1.000000
v 1.565742 -1.000000 1.000000
v 1.965742 1.000000 -1.000000
v 1.565742 1.000000 -1.000000
v 1.965741 1.000000 1.000000
v 1.565741 1.000000 1.000000
v 3.078817 -1.000000 1.000000
v 1.936767 -1.000000 1.000000
v 3.078815 1.000000 1.000000
v 1.936765 1.000000 1.000000
v 3.078817 -1.000000 3.185114
v 1.936767 -1.000000 3.185114
v 3.078815 1.000000 3.185114
v 1.936765 1.000000 3.185114
v 4.309055 -1.000000 3.185114
v 2.346846 -1.000000 3.185114
v 4.309053 1.000000 3.185114
v 2.346844 1.000000 3.185114
v 4.309055 -1.000000 5.497444
v 2.346846 -1.000000 5.497444
v 4.309053 1.000000 5.497444
v 2.346844 1.000000 5.497444
v 5.576657 -1.000000 5.497444
v 2.769380 -1.000000 5.497444
v 5.576654 1.000000 5.497444
v 2.769378 1.000000 5.497444
v 5.576657 -1.000000 7.941748
v 2.769380 -1.000000 7.941748
v 5.576654 1.000000 7.941749
v 2.769378 1.000000 7.941749
v 5.576654 1.000000 10.461060
v 2.769378 1.000000 10.461060
v 2.769378 1.000000 12.914447
v 2.769380 -1.000000 12.914447
v 5.576654 1.000000 12.914447
v 5.576657 -1.000000 12.914447
v 8.383931 1.000000 12.914447
v 8.383934 -1.000000 12.914447
v 2.769378 1.000000 15.380173
v 2.769380 -1.000000 15.380173
v 5.576654 1.000000 15.380173
v 5.576657 -1.000000 15.380173
v 5.606561 -1.105647 18.189423
v 5.606561 1.043894 18.189423
v 5.606561 -1.105647 15.372185
v 5.606561 1.043894 15.372185
v 8.400641 -1.105647 18.189423
v 8.400641 1.043894 18.189423
v 8.400641 -1.105647 15.372185
v 8.400641 1.043894 15.372185
v 2.807142 -1.105647 21.023523
v 2.807142 1.043894 21.023523
v 2.807142 -1.105647 18.206285
v 2.807142 1.043894 18.206285
v 5.601222 -1.105647 21.023523
v 5.601222 1.043894 21.023523
v 5.601222 -1.105647 18.206285
v 5.601222 1.043894 18.206285
v 8.419430 -1.105647 21.012756
v 8.419430 1.043894 21.012756
v 8.419430 -1.105647 18.195518
v 8.419430 1.043894 18.195518
v 11.213509 -1.105647 21.012756
v 11.213509 1.043894 21.012756
v 11.213509 -1.105647 18.195518
v 11.213509 1.043894 18.195518
v -2.365741 -1.000000 -1.000000
v -2.365741 -1.000000 1.000000
v -2.365742 1.000000 -0.999999
v -2.365741 1.000000 1.000001
v -4.220867 -1.000000 1.000000
v -4.220865 1.000000 1.000001
v -4.220867 -1.000000 3.185114
v -4.220865 1.000000 3.185114
v -6.271264 -1.000000 3.185114
v -6.271262 1.000000 3.185114
v -6.271264 -1.000000 5.497444
v -6.271262 1.000000 5.497444
v -8.383934 -1.000000 5.497444
v -8.383931 1.000000 5.497444
v -8.383934 -1.000000 7.941748
v -8.383931 1.000000 7.941749
v -2.769380 -1.000000 10.461060
v -5.576657 -1.000000 10.461060
v -8.383931 1.000000 10.461060
v -8.383934 -1.000000 10.461060
v -1.965742 -1.000000 -1.000000
v -1.565742 -1.000000 -1.000000
v -1.965742 -1.000000 1.000000
v -1.565742 -1.000000 1.000000
v -1.965742 1.000000 -1.000000
v -1.565742 1.000000 -1.000000
v -1.965741 1.000000 1.000000
v -1.565741 1.000000 1.000000
v -3.078817 -1.000000 1.000000
v -1.936767 -1.000000 1.000000
v -3.078815 1.000000 1.000000
v -1.936765 1.000000 1.000000
v -3.078817 -1.000000 3.185114
v -1.936767 -1.000000 3.185114
v -3.078815 1.000000 3.185114
v -1.936765 1.000000 3.185114
v -4.309055 -1.000000 3.185114
v -2.346846 -1.000000 3.185114
v -4.309053 1.000000 3.185114
v -2.346844 1.000000 3.185114
v -4.309055 -1.000000 5.497444
v -2.346846 -1.000000 5.497444
v -4.309053 1.000000 5.497444
v -2.346844 1.000000 5.497444
v -5.576657 -1.000000 5.497444
v -2.769380 -1.000000 5.497444
v -5.576654 1.000000 5.497444
v -2.769378 1.000000 5.497444
v -5.576657 -1.000000 7.941748
v -2.769380 -1.000000 7.941748
v -5.576654 1.000000 7.941749
v -2.769378 1.000000 7.941749
v -5.576654 1.000000 10.461060
v -2.769378 1.000000 10.461060
v -2.769378 1.000000 12.914447
v -2.769380 -1.000000 12.914447
v -5.576654 1.000000 12.914447
v -5.576657 -1.000000 12.914447
v -8.383931 1.000000 12.914447
v -8.383934 -1.000000 12.914447
v -2.769378 1.000000 15.380173
v -2.769380 -1.000000 15.380173
v -5.576654 1.000000 15.380173
v -5.576657 -1.000000 15.380173
v -5.606561 -1.105647 18.189423
v -5.606561 1.043894 18.189423
v -5.606561 -1.105647 15.372185
v -5.606561 1.043894 15.372185
v -8.400641 -1.105647 18.189423
v -8.400641 1.043894 18.189423
v -8.400641 -1.105647 15.372185
v -8.400641 1.043894 15.372185
v -2.807142 -1.105647 21.023523
v -2.807142 1.043894 21.023523
v -2.807142 -1.105647 18.206285
v -2.807142 1.043894 18.206285
v -5.601222 -1.105647 21.023523
v -5.601222 1.043894 21.023523
v -5.601222 -1.105647 18.206285
v -5.601222 1.043894 18.206285
v -8.419430 -1.105647 21.012756
v -8.419430 1.043894 21.012756
v -8.419430 -1.105647 18.195518
v -8.419430 1.043894 18.195518
v -11.213509 -1.105647 21.012756
v -11.213509 1.043894 21.012756
v -11.213509 -1.105647 18.195518
v -11.213509 1.043894 18.195518
v 0.000000 1.000000 10.461060
v 0.000000 -1.000000 10.461060
v 0.000000 -1.000000 -1.000000
v 0.000000 -1.000000 1.000000
v 0.000000 1.000000 -1.000000
v 0.000000 1.000000 1.000000
v 0.000000 -1.000000 1.000000
v 0.000000 1.000000 1.000000
v 0.000000 -1.000000 3.185114
v 0.000000 1.000000 3.185114
v 0.000000 -1.000000 3.185114
v 0.000000 1.000000 3.185114
v 0.000000 -1.000000 5.497444
v 0.000000 1.000000 5.497444
v 0.000000 -1.000000 5.497444
v 0.000000 1.000000 5.497444
v 0.000000 -1.000000 7.941748
v 0.000000 1.000000 7.941749
v 0.000000 1.000000 12.914447
v 0.000000 -1.000000 12.914447
v 0.000000 1.000000 15.380173
v 0.000000 -1.000000 15.380173
v 0.000000 -1.105647 18.206285
v 0.000000 1.043894 18.206285
vn 1.0000 0.0000 0.0000
vn 0.0000 1.0000 0.0000
vn 0.0000 0.0000 -1.0000
vn 0.0000 -1.0000 0.0000
vn 0.0000 0.0000 1.0000
vn -1.0000 -0.0000 0.0000
vn 0.0000 -0.9993 -0.0374
vn 0.0000 0.9999 -0.0155
vn 0.9999 0.0000 -0.0134
vn -0.9999 0.0000 -0.0134
usemtl Material
s off
f 1//1 3//1 4//1 2//1
f 23//2 2//2 5//2 29//2
f 2//3 4//3 6//3 5//3
f 7//3 8//3 10//3 9//3
f 5//1 6//1 8//1 7//1
f 29//4 5//4 7//4 33//4
f 33//5 7//5 9//5 37//5
f 37//4 9//4 11//4 41//4
f 9//1 10//1 12//1 11//1
f 41//5 11//5 13//5 45//5
f 11//3 12//3 14//3 13//3
f 45//4 13//4 15//4 49//4
f 13//1 14//1 16//1 15//1
f 51//6 49//6 18//6 53//6
f 18//4 20//4 60//4 58//4
f 14//2 47//2 51//2 16//2
f 47//2 48//2 52//2 51//2
f 191//4 46//4 50//4 193//4
f 46//4 45//4 49//4 50//4
f 193//4 50//4 17//4 178//4
f 49//5 51//5 52//5 50//5
f 12//5 43//5 47//5 14//5
f 43//5 44//5 48//5 47//5
f 189//5 42//5 46//5 191//5
f 42//5 41//5 45//5 46//5
f 10//2 39//2 43//2 12//2
f 39//2 40//2 44//2 43//2
f 187//4 38//4 42//4 189//4
f 38//4 37//4 41//4 42//4
f 8//4 35//4 39//4 10//4
f 35//4 36//4 40//4 39//4
f 185//5 34//5 38//5 187//5
f 34//5 33//5 37//5 38//5
f 183//4 30//4 34//4 185//4
f 30//4 29//4 33//4 34//4
f 4//4 27//4 31//4 6//4
f 27//4 28//4 32//4 31//4
f 6//2 31//2 35//2 8//2
f 31//2 32//2 36//2 35//2
f 3//3 1//3 21//3 25//3
f 25//3 21//3 22//3 26//3
f 180//5 24//5 30//5 183//5
f 24//2 23//2 29//2 30//2
f 3//2 25//2 27//2 4//2
f 25//2 26//2 28//2 27//2
f 1//4 2//4 23//4 21//4
f 21//4 23//4 24//4 22//4
f 50//1 52//1 54//1 17//1
f 49//4 15//4 20//4 18//4
f 16//2 51//2 53//2 19//2
f 15//1 16//1 19//1 20//1
f 60//5 59//5 57//5 58//5
f 19//2 53//2 57//2 59//2
f 178//4 17//4 56//4 196//4
f 20//1 19//1 59//1 60//1
f 17//3 54//3 53//3 18//3
f 55//2 57//2 53//2 54//2
f 18//4 58//4 56//4 17//4
f 62//5 64//5 63//5 61//5
f 57//2 55//2 61//2 63//2
f 55//6 56//6 62//6 61//6
f 56//4 58//4 64//4 62//4
f 58//1 57//1 63//1 64//1
f 65//6 66//6 68//6 67//6
f 67//3 68//3 72//3 71//3
f 71//1 72//1 70//1 69//1
f 69//5 70//5 66//5 65//5
f 67//4 71//4 69//4 65//4
f 72//2 68//2 66//2 70//2
f 73//6 74//6 76//6 75//6
f 75//3 76//3 80//3 79//3
f 79//1 80//1 78//1 77//1
f 77//5 78//5 74//5 73//5
f 75//4 79//4 77//4 73//4
f 80//2 76//2 74//2 78//2
f 88//2 84//2 82//2 86//2
f 83//3 84//3 88//3 87//3
f 83//4 87//4 85//4 81//4
f 85//5 86//5 82//5 81//5
f 87//1 88//1 86//1 85//1
f 81//6 82//6 84//6 83//6
f 56//5 55//5 195//5 196//5
f 22//4 24//4 180//4 179//4
f 26//2 181//2 182//2 28//2
f 26//3 22//3 179//3 181//3
f 32//2 184//2 186//2 36//2
f 28//4 182//4 184//4 32//4
f 36//5 186//5 188//5 40//5
f 40//2 188//2 190//2 44//2
f 44//5 190//5 192//5 48//5
f 48//2 192//2 194//2 52//2
f 52//2 194//2 177//2 54//2
f 54//2 177//2 195//2 55//2
f 76//5 200//5 199//5 75//5
f 75//7 199//7 198//7 62//7
f 62//3 198//3 197//3 61//3
f 61//8 197//8 200//8 76//8
f 76//9 75//9 62//9 61//9
f 89//6 90//6 92//6 91//6
f 111//2 117//2 93//2 90//2
f 90//3 93//3 94//3 92//3
f 95//3 97//3 98//3 96//3
f 93//6 95//6 96//6 94//6
f 117//4 121//4 95//4 93//4
f 121//5 125//5 97//5 95//5
f 125//4 129//4 99//4 97//4
f 97//6 99//6 100//6 98//6
f 129//5 133//5 101//5 99//5
f 99//3 101//3 102//3 100//3
f 133//4 137//4 103//4 101//4
f 101//6 103//6 104//6 102//6
f 139//1 141//1 106//1 137//1
f 106//4 146//4 148//4 108//4
f 102//2 104//2 139//2 135//2
f 135//2 139//2 140//2 136//2
f 191//4 193//4 138//4 134//4
f 134//4 138//4 137//4 133//4
f 193//4 178//4 105//4 138//4
f 137//5 138//5 140//5 139//5
f 100//5 102//5 135//5 131//5
f 131//5 135//5 136//5 132//5
f 189//5 191//5 134//5 130//5
f 130//5 134//5 133//5 129//5
f 98//2 100//2 131//2 127//2
f 127//2 131//2 132//2 128//2
f 187//4 189//4 130//4 126//4
f 126//4 130//4 129//4 125//4
f 96//4 98//4 127//4 123//4
f 123//4 127//4 128//4 124//4
f 185//5 187//5 126//5 122//5
f 122//5 126//5 125//5 121//5
f 183//4 185//4 122//4 118//4
f 118//4 122//4 121//4 117//4
f 92//4 94//4 119//4 115//4
f 115//4 119//4 120//4 116//4
f 94//2 96//2 123//2 119//2
f 119//2 123//2 124//2 120//2
f 91//3 113//3 109//3 89//3
f 113//3 114//3 110//3 109//3
f 180//5 183//5 118//5 112//5
f 112//2 118//2 117//2 111//2
f 91//2 92//2 115//2 113//2
f 113//2 115//2 116//2 114//2
f 89//4 109//4 111//4 90//4
f 109//4 110//4 112//4 111//4
f 138//6 105//6 142//6 140//6
f 137//4 106//4 108//4 103//4
f 104//2 107//2 141//2 139//2
f 103//6 108//6 107//6 104//6
f 148//5 146//5 145//5 147//5
f 107//2 147//2 145//2 141//2
f 178//4 196//4 144//4 105//4
f 108//6 148//6 147//6 107//6
f 105//3 106//3 141//3 142//3
f 143//2 142//2 141//2 145//2
f 106//4 105//4 144//4 146//4
f 150//5 149//5 151//5 152//5
f 145//2 151//2 149//2 143//2
f 143//1 149//1 150//1 144//1
f 144//4 150//4 152//4 146//4
f 146//6 152//6 151//6 145//6
f 153//1 155//1 156//1 154//1
f 155//3 159//3 160//3 156//3
f 159//6 157//6 158//6 160//6
f 157//5 153//5 154//5 158//5
f 155//4 153//4 157//4 159//4
f 160//2 158//2 154//2 156//2
f 161//1 163//1 164//1 162//1
f 163//3 167//3 168//3 164//3
f 167//6 165//6 166//6 168//6
f 165//5 161//5 162//5 166//5
f 163//4 161//4 165//4 167//4
f 168//2 166//2 162//2 164//2
f 176//2 174//2 170//2 172//2
f 171//3 175//3 176//3 172//3
f 171//4 169//4 173//4 175//4
f 173//5 169//5 170//5 174//5
f 175//6 173//6 174//6 176//6
f 169//1 171//1 172//1 170//1
f 144//5 196//5 195//5 143//5
f 110//4 179//4 180//4 112//4
f 114//2 116//2 182//2 181//2
f 114//3 181//3 179//3 110//3
f 120//2 124//2 186//2 184//2
f 116//4 120//4 184//4 182//4
f 124//5 128//5 188//5 186//5
f 128//2 132//2 190//2 188//2
f 132//5 136//5 192//5 190//5
f 136//2 140//2 194//2 192//2
f 140//2 142//2 177//2 194//2
f 142//2 143//2 195//2 177//2
f 164//5 163//5 199//5 200//5
f 200//1 199//1 198//1 197//1
f 163//7 150//7 198//7 199//7
f 150//3 149//3 197//3 198//3
f 149//8 164//8 200//8 197//8
f 164//10 149//10 150//10 163//10
