# Blender v2.79 (sub 0) OBJ File: 'invader4.blend'
# www.blender.org
mtllib invader4.mtl
o Cube
v 1.952391 0.999999 5.020201
v 6.011069 0.999999 5.020201
v 6.971914 1.000000 2.918354
v 3.960936 1.000000 -0.999999
v 3.960935 1.000000 1.000001
v 6.971914 1.000001 1.000001
v 3.960935 1.000000 2.918354
v 10.316580 1.000000 2.918355
v 10.316579 0.999999 5.020202
v 1.962935 0.999997 11.027148
v 6.011069 0.999998 7.061996
v 10.316579 0.999998 7.061996
v 7.103696 0.999997 8.983685
v 10.316579 0.999997 8.983686
v 7.103696 0.999997 11.027148
v 1.957663 0.999998 7.051987
v 1.962935 0.999997 8.983685
v -0.037901 -1.000000 13.025800
v -0.037901 1.000000 13.025800
v -0.037901 -1.000000 11.025800
v -0.037901 1.000000 11.025800
v 1.962099 -1.000000 13.025800
v 1.962099 1.000000 13.025800
v 1.962099 -1.000000 11.025800
v 1.962099 1.000000 11.025800
v 5.238276 0.999997 13.075522
v 10.379036 0.999997 11.032060
v 10.379036 0.999997 13.075522
v 5.238276 0.999997 11.032060
v 7.808656 0.999997 13.075522
v 7.808656 0.999997 11.032060
v 5.238276 0.999996 15.133710
v 7.808656 0.999996 15.133710
v 3.207250 0.999997 13.075522
v 3.207250 0.999996 15.133710
v -1.952391 0.999999 5.020201
v -6.011069 0.999999 5.020201
v -6.971914 1.000000 2.918354
v -3.960936 1.000000 -0.999999
v -3.960935 1.000000 1.000001
v -6.971914 1.000001 1.000001
v 0.000000 1.000000 2.918353
v 0.000000 1.000000 -1.000000
v 0.000000 1.000000 1.000000
v -3.960935 1.000000 2.918354
v -10.316580 1.000000 2.918355
v 0.000000 0.999999 5.020200
v -10.316579 0.999999 5.020202
v 0.000000 0.999998 7.051987
v -1.962935 0.999997 11.027148
v -6.011069 0.999998 7.061996
v -10.316579 0.999998 7.061996
v -7.103696 0.999997 8.983685
v -10.316579 0.999997 8.983686
v -7.103696 0.999997 11.027148
v -1.957663 0.999998 7.051987
v -1.962935 0.999997 8.983685
v 0.000000 0.999997 8.983685
v 0.037901 -1.000000 13.025800
v 0.037901 1.000000 13.025800
v 0.037901 -1.000000 11.025800
v 0.037901 1.000000 11.025800
v -1.962099 -1.000000 13.025800
v -1.962099 1.000000 13.025800
v -1.962099 -1.000000 11.025800
v -1.962099 1.000000 11.025800
v -5.238276 0.999997 13.075522
v -10.379036 0.999997 11.032060
v -10.379036 0.999997 13.075522
v -5.238276 0.999997 11.032060
v -7.808656 0.999997 13.075522
v -7.808656 0.999997 11.032060
v -5.238276 0.999996 15.133710
v -7.808656 0.999996 15.133710
v -3.207250 0.999997 13.075522
v -3.207250 0.999996 15.133710
v 6.011069 0.000000 5.020201
v 1.952391 -0.999999 5.020201
v 6.011069 -0.999999 5.020201
v 6.971914 -1.000000 2.918354
v 3.960936 -1.000000 -0.999999
v 3.960935 -1.000000 1.000001
v 6.971914 0.000000 2.918354
v 6.971914 -1.000001 1.000001
v 10.316580 0.000000 2.918354
v 3.960936 0.000000 -1.000000
v 3.960935 0.000000 1.000000
v 3.960935 -1.000000 2.918354
v 10.316580 -1.000000 2.918355
v 6.971915 0.000000 1.000001
v 1.952391 0.000000 5.020200
v 6.011069 0.000000 7.061996
v 10.316579 -0.999999 5.020202
v 10.316579 0.000000 5.020201
v 1.957663 0.000000 7.051987
v 1.962935 -0.999997 11.027148
v 1.962935 0.000000 11.027147
v 6.011069 -0.999998 7.061996
v 10.316579 0.000000 7.061996
v 10.316579 -0.999998 7.061996
v 7.103696 0.000000 8.983685
v 7.103696 -0.999997 8.983685
v 10.316579 0.000000 8.983685
v 10.316579 -0.999997 8.983686
v 7.103696 -0.999997 11.027148
v 1.957663 -0.999998 7.051987
v 1.962935 0.000000 8.983685
v 1.962935 -0.999997 8.983685
v 7.103696 0.000000 11.027147
v -0.037901 1.000000 13.025800
v -0.037901 -1.000000 13.025800
v -0.037901 1.000000 11.025800
v -0.037901 -1.000000 11.025800
v 1.962099 1.000000 13.025800
v 1.962099 -1.000000 13.025800
v 1.962099 1.000000 11.025800
v 1.962099 -1.000000 11.025800
v 5.238276 -0.999997 13.075522
v 5.238276 0.000000 13.075521
v 10.379036 0.000000 11.032059
v 10.379036 -0.999997 11.032060
v 10.379036 -0.999997 13.075522
v 5.238276 0.000000 11.032059
v 5.238276 -0.999997 11.032060
v 10.379036 0.000000 13.075521
v 7.808656 0.000000 13.075521
v 7.808656 -0.999997 13.075522
v 7.808656 -0.999997 11.032060
v 7.808656 0.000000 11.032059
v 5.238276 0.000000 15.133709
v 5.238276 -0.999996 15.133710
v 7.808656 0.000000 15.133709
v 7.808656 -0.999996 15.133710
v 3.207250 0.000000 13.075521
v 3.207250 -0.999997 13.075522
v 3.207250 0.000000 15.133709
v 3.207250 -0.999996 15.133710
v -6.011069 0.000000 5.020201
v -1.952391 -0.999999 5.020201
v -6.011069 -0.999999 5.020201
v -6.971914 -1.000000 2.918354
v -3.960936 -1.000000 -0.999999
v -3.960935 -1.000000 1.000001
v -6.971914 0.000000 2.918354
v -6.971914 -1.000001 1.000001
v -10.316580 0.000000 2.918354
v 0.000000 -1.000000 2.918353
v 0.000000 -1.000000 -1.000000
v 0.000000 -1.000000 1.000000
v -3.960936 0.000000 -1.000000
v -3.960935 0.000000 1.000000
v -3.960935 -1.000000 2.918354
v -10.316580 -1.000000 2.918355
v 0.000000 0.000000 -1.000000
v -6.971915 0.000000 1.000001
v -1.952391 0.000000 5.020200
v -6.011069 0.000000 7.061996
v 0.000000 -0.999999 5.020200
v -10.316579 -0.999999 5.020202
v -10.316579 0.000000 5.020201
v -1.957663 0.000000 7.051987
v 0.000000 -0.999998 7.051987
v -1.962935 -0.999997 11.027148
v -1.962935 0.000000 11.027147
v -6.011069 -0.999998 7.061996
v -10.316579 0.000000 7.061996
v -10.316579 -0.999998 7.061996
v -7.103696 0.000000 8.983685
v -7.103696 -0.999997 8.983685
v -10.316579 0.000000 8.983685
v -10.316579 -0.999997 8.983686
v -7.103696 -0.999997 11.027148
v -1.957663 -0.999998 7.051987
v -1.962935 0.000000 8.983685
v -1.962935 -0.999997 8.983685
v 0.000000 -0.999997 8.983685
v 0.000000 0.000000 8.983685
v -7.103696 0.000000 11.027147
v 0.037901 1.000000 13.025800
v 0.037901 -1.000000 13.025800
v 0.037901 1.000000 11.025800
v 0.037901 -1.000000 11.025800
v -1.962099 1.000000 13.025800
v -1.962099 -1.000000 13.025800
v -1.962099 1.000000 11.025800
v -1.962099 -1.000000 11.025800
v -5.238276 -0.999997 13.075522
v -5.238276 0.000000 13.075521
v -10.379036 0.000000 11.032059
v -10.379036 -0.999997 11.032060
v -10.379036 -0.999997 13.075522
v -5.238276 0.000000 11.032059
v -5.238276 -0.999997 11.032060
v -10.379036 0.000000 13.075521
v -7.808656 0.000000 13.075521
v -7.808656 -0.999997 13.075522
v -7.808656 -0.999997 11.032060
v -7.808656 0.000000 11.032059
v -5.238276 0.000000 15.133709
v -5.238276 -0.999996 15.133710
v -7.808656 0.000000 15.133709
v -7.808656 -0.999996 15.133710
v -3.207250 0.000000 13.075521
v -3.207250 -0.999997 13.075522
v -3.207250 0.000000 15.133709
v -3.207250 -0.999996 15.133710
vn -0.0000 1.0000 0.0000
vn 1.0000 0.0000 0.0000
vn 0.0000 0.0000 -1.0000
vn -1.0000 -0.0000 0.0000
vn 0.0000 -0.0000 1.0000
vn 1.0000 0.0000 -0.0026
vn 0.0025 0.0000 -1.0000
vn 0.0000 -1.0000 0.0000
vn -1.0000 0.0000 -0.0026
vn -0.0025 0.0000 -1.0000
usemtl Material
s off
f 7//1 42//1 47//1 1//1
f 5//1 44//1 42//1 7//1
f 86//2 4//2 5//2 87//2
f 87//3 5//3 6//3 90//3
f 90//2 6//2 3//2 83//2
f 5//1 7//1 3//1 6//1
f 2//4 77//4 92//4 11//4
f 83//3 3//3 8//3 85//3
f 4//1 43//1 44//1 5//1
f 3//1 2//1 9//1 8//1
f 85//2 8//2 9//2 94//2
f 4//3 86//3 154//3 43//3
f 3//1 7//1 1//1 2//1
f 1//5 91//5 77//5 2//5
f 91//6 1//6 16//6 95//6
f 107//5 17//5 58//5 177//5
f 1//1 47//1 49//1 16//1
f 99//2 12//2 14//2 103//2
f 94//2 9//2 12//2 99//2
f 9//1 2//1 11//1 12//1
f 13//5 101//5 103//5 14//5
f 13//1 11//1 16//1 17//1
f 12//1 11//1 13//1 14//1
f 17//1 16//1 49//1 58//1
f 11//7 92//7 95//7 16//7
f 17//4 107//4 97//4 10//4
f 109//5 15//5 10//5 97//5
f 101//2 13//2 15//2 109//2
f 13//1 17//1 10//1 15//1
f 18//4 19//4 21//4 20//4
f 20//3 21//3 25//3 24//3
f 24//2 25//2 23//2 22//2
f 22//5 23//5 19//5 18//5
f 20//8 24//8 22//8 18//8
f 25//1 21//1 19//1 23//1
f 29//4 123//4 119//4 26//4
f 30//1 26//1 32//1 33//1
f 120//2 27//2 28//2 125//2
f 31//1 29//1 26//1 30//1
f 31//3 129//3 123//3 29//3
f 27//3 120//3 129//3 31//3
f 27//1 31//1 30//1 28//1
f 125//5 28//5 30//5 126//5
f 132//5 33//5 32//5 130//5
f 130//5 32//5 35//5 136//5
f 126//2 30//2 33//2 132//2
f 34//4 134//4 136//4 35//4
f 26//3 119//3 134//3 34//3
f 32//1 26//1 34//1 35//1
f 45//1 36//1 47//1 42//1
f 40//1 45//1 42//1 44//1
f 150//4 151//4 40//4 39//4
f 151//3 155//3 41//3 40//3
f 155//4 144//4 38//4 41//4
f 40//1 41//1 38//1 45//1
f 37//2 51//2 157//2 138//2
f 144//3 146//3 46//3 38//3
f 39//1 40//1 44//1 43//1
f 38//1 46//1 48//1 37//1
f 146//4 160//4 48//4 46//4
f 39//3 43//3 154//3 150//3
f 38//1 37//1 36//1 45//1
f 36//5 37//5 138//5 156//5
f 156//9 161//9 56//9 36//9
f 174//5 177//5 58//5 57//5
f 36//1 56//1 49//1 47//1
f 166//4 170//4 54//4 52//4
f 160//4 166//4 52//4 48//4
f 48//1 52//1 51//1 37//1
f 53//5 54//5 170//5 168//5
f 53//1 57//1 56//1 51//1
f 52//1 54//1 53//1 51//1
f 57//1 58//1 49//1 56//1
f 51//10 56//10 161//10 157//10
f 57//2 50//2 164//2 174//2
f 178//5 164//5 50//5 55//5
f 168//4 178//4 55//4 53//4
f 53//1 55//1 50//1 57//1
f 59//2 61//2 62//2 60//2
f 61//3 65//3 66//3 62//3
f 65//4 63//4 64//4 66//4
f 63//5 59//5 60//5 64//5
f 61//8 59//8 63//8 65//8
f 66//1 64//1 60//1 62//1
f 70//2 67//2 188//2 192//2
f 71//1 74//1 73//1 67//1
f 189//4 194//4 69//4 68//4
f 72//1 71//1 67//1 70//1
f 72//3 70//3 192//3 198//3
f 68//3 72//3 198//3 189//3
f 68//1 69//1 71//1 72//1
f 194//5 195//5 71//5 69//5
f 201//5 199//5 73//5 74//5
f 199//5 205//5 76//5 73//5
f 195//4 201//4 74//4 71//4
f 75//2 76//2 205//2 203//2
f 67//3 75//3 203//3 188//3
f 73//1 76//1 75//1 67//1
f 88//8 78//8 158//8 147//8
f 82//8 88//8 147//8 149//8
f 86//2 87//2 82//2 81//2
f 87//3 90//3 84//3 82//3
f 90//2 83//2 80//2 84//2
f 82//8 84//8 80//8 88//8
f 79//4 98//4 92//4 77//4
f 83//3 85//3 89//3 80//3
f 81//8 82//8 149//8 148//8
f 80//8 89//8 93//8 79//8
f 85//2 94//2 93//2 89//2
f 81//3 148//3 154//3 86//3
f 80//8 79//8 78//8 88//8
f 78//5 79//5 77//5 91//5
f 91//6 95//6 106//6 78//6
f 107//5 177//5 176//5 108//5
f 78//8 106//8 162//8 158//8
f 99//2 103//2 104//2 100//2
f 94//2 99//2 100//2 93//2
f 93//8 100//8 98//8 79//8
f 102//5 104//5 103//5 101//5
f 102//8 108//8 106//8 98//8
f 100//8 104//8 102//8 98//8
f 108//8 176//8 162//8 106//8
f 98//7 106//7 95//7 92//7
f 108//4 96//4 97//4 107//4
f 109//5 97//5 96//5 105//5
f 101//2 109//2 105//2 102//2
f 102//8 105//8 96//8 108//8
f 110//4 112//4 113//4 111//4
f 112//3 116//3 117//3 113//3
f 116//2 114//2 115//2 117//2
f 114//5 110//5 111//5 115//5
f 112//1 110//1 114//1 116//1
f 117//8 115//8 111//8 113//8
f 124//4 118//4 119//4 123//4
f 127//8 133//8 131//8 118//8
f 120//2 125//2 122//2 121//2
f 128//8 127//8 118//8 124//8
f 128//3 124//3 123//3 129//3
f 121//3 128//3 129//3 120//3
f 121//8 122//8 127//8 128//8
f 125//5 126//5 127//5 122//5
f 132//5 130//5 131//5 133//5
f 130//5 136//5 137//5 131//5
f 126//2 132//2 133//2 127//2
f 135//4 137//4 136//4 134//4
f 118//3 135//3 134//3 119//3
f 131//8 137//8 135//8 118//8
f 152//8 147//8 158//8 139//8
f 143//8 149//8 147//8 152//8
f 150//4 142//4 143//4 151//4
f 151//3 143//3 145//3 155//3
f 155//4 145//4 141//4 144//4
f 143//8 152//8 141//8 145//8
f 140//2 138//2 157//2 165//2
f 144//3 141//3 153//3 146//3
f 142//8 148//8 149//8 143//8
f 141//8 140//8 159//8 153//8
f 146//4 153//4 159//4 160//4
f 142//3 150//3 154//3 148//3
f 141//8 152//8 139//8 140//8
f 139//5 156//5 138//5 140//5
f 156//9 139//9 173//9 161//9
f 174//5 175//5 176//5 177//5
f 139//8 158//8 162//8 173//8
f 166//4 167//4 171//4 170//4
f 160//4 159//4 167//4 166//4
f 159//8 140//8 165//8 167//8
f 169//5 168//5 170//5 171//5
f 169//8 165//8 173//8 175//8
f 167//8 165//8 169//8 171//8
f 175//8 173//8 162//8 176//8
f 165//10 157//10 161//10 173//10
f 175//2 174//2 164//2 163//2
f 178//5 172//5 163//5 164//5
f 168//4 169//4 172//4 178//4
f 169//8 175//8 163//8 172//8
f 179//2 180//2 182//2 181//2
f 181//3 182//3 186//3 185//3
f 185//4 186//4 184//4 183//4
f 183//5 184//5 180//5 179//5
f 181//1 185//1 183//1 179//1
f 186//8 182//8 180//8 184//8
f 193//2 192//2 188//2 187//2
f 196//8 187//8 200//8 202//8
f 189//4 190//4 191//4 194//4
f 197//8 193//8 187//8 196//8
f 197//3 198//3 192//3 193//3
f 190//3 189//3 198//3 197//3
f 190//8 197//8 196//8 191//8
f 194//5 191//5 196//5 195//5
f 201//5 202//5 200//5 199//5
f 199//5 200//5 206//5 205//5
f 195//4 196//4 202//4 201//4
f 204//2 203//2 205//2 206//2
f 187//3 188//3 203//3 204//3
f 200//8 187//8 204//8 206//8
